<mxfile host="app.diagrams.net" modified="2024-05-05T03:48:07.413Z" agent="Mozilla/5.0 (Windows NT 10.0; Win64; x64) AppleWebKit/537.36 (KHTML, like Gecko) Chrome/124.0.0.0 Safari/537.36" etag="DBUYVo5p4XX63AV94xfX" version="24.0.1" type="device">
  <diagram name="Page-1" id="RKFAWImEajA0O7VNwOQ2">
    <mxGraphModel dx="794" dy="446" grid="1" gridSize="10" guides="1" tooltips="1" connect="1" arrows="1" fold="1" page="1" pageScale="1" pageWidth="850" pageHeight="1100" math="0" shadow="0">
      <root>
        <mxCell id="0" />
        <mxCell id="1" parent="0" />
        <mxCell id="jS5DAeOdQUqkGCRt5gWH-1" value="RL to govern the entire process, when to ask, when to change plan" style="text;html=1;align=center;verticalAlign=middle;whiteSpace=wrap;rounded=0;" vertex="1" parent="1">
          <mxGeometry x="230" y="70" width="180" height="30" as="geometry" />
        </mxCell>
        <mxCell id="jS5DAeOdQUqkGCRt5gWH-2" value="scientific methods: induction (hypothesis falsification) and deduction (logics) to derive the next steps" style="text;html=1;align=center;verticalAlign=middle;whiteSpace=wrap;rounded=0;" vertex="1" parent="1">
          <mxGeometry x="230" y="140" width="180" height="30" as="geometry" />
        </mxCell>
        <mxCell id="jS5DAeOdQUqkGCRt5gWH-3" value="knowledge graph as memory (can be replaced by memory engrams if neuromorphic implementation)" style="text;html=1;align=center;verticalAlign=middle;whiteSpace=wrap;rounded=0;" vertex="1" parent="1">
          <mxGeometry x="230" y="240" width="180" height="30" as="geometry" />
        </mxCell>
        <mxCell id="jS5DAeOdQUqkGCRt5gWH-4" value="involves action and feedback, with a explainer to explain the result" style="text;html=1;align=center;verticalAlign=middle;whiteSpace=wrap;rounded=0;" vertex="1" parent="1">
          <mxGeometry x="420" y="180" width="180" height="30" as="geometry" />
        </mxCell>
        <mxCell id="jS5DAeOdQUqkGCRt5gWH-5" value="attention, when to include memory, if there is successful experience" style="text;html=1;align=center;verticalAlign=middle;whiteSpace=wrap;rounded=0;" vertex="1" parent="1">
          <mxGeometry x="430" y="260" width="180" height="30" as="geometry" />
        </mxCell>
        <mxCell id="jS5DAeOdQUqkGCRt5gWH-8" value="TODO: roles/profiles: researcher, programmer, paper reader... (some can be used as functions)" style="text;html=1;align=center;verticalAlign=middle;whiteSpace=wrap;rounded=0;" vertex="1" parent="1">
          <mxGeometry x="430" y="70" width="180" height="30" as="geometry" />
        </mxCell>
        <mxCell id="jS5DAeOdQUqkGCRt5gWH-9" value="&lt;span style=&quot;color: rgb(34, 34, 34); font-family: Arial, sans-serif; font-style: normal; font-variant-ligatures: normal; font-variant-caps: normal; letter-spacing: normal; orphans: 2; text-align: left; text-indent: 0px; text-transform: none; widows: 2; word-spacing: 0px; -webkit-text-stroke-width: 0px; white-space: normal; background-color: rgb(255, 255, 255); text-decoration-thickness: initial; text-decoration-style: initial; text-decoration-color: initial; float: none; display: inline !important;&quot;&gt;&lt;font style=&quot;font-size: 12px;&quot;&gt;&lt;b&gt;References:&lt;/b&gt;&lt;/font&gt;&lt;/span&gt;&lt;div&gt;&lt;font face=&quot;Arial, sans-serif&quot; color=&quot;#222222&quot;&gt;&lt;b&gt;&lt;br&gt;&lt;/b&gt;&lt;/font&gt;&lt;div&gt;&lt;font face=&quot;Arial, sans-serif&quot; color=&quot;#222222&quot;&gt;&lt;b&gt;&lt;u&gt;RL:&lt;/u&gt;&lt;/b&gt;&lt;br&gt;&lt;/font&gt;&lt;div&gt;&lt;font style=&quot;font-size: 12px;&quot;&gt;&lt;span style=&quot;color: rgb(34, 34, 34); font-family: Arial, sans-serif; font-style: normal; font-variant-ligatures: normal; font-variant-caps: normal; font-weight: 400; letter-spacing: normal; orphans: 2; text-align: left; text-indent: 0px; text-transform: none; widows: 2; word-spacing: 0px; -webkit-text-stroke-width: 0px; white-space: normal; background-color: rgb(255, 255, 255); text-decoration-thickness: initial; text-decoration-style: initial; text-decoration-color: initial; float: none; display: inline !important;&quot;&gt;Yao, W., Heinecke, S., Niebles, J.C., Liu, Z., Feng, Y., Xue, L., Murthy, R., Chen, Z., Zhang, J., Arpit, D. and Xu, R., 2023. Retroformer: Retrospective large language agents with policy gradient optimization.&lt;span&gt;&amp;nbsp;&lt;/span&gt;&lt;/span&gt;&lt;i style=&quot;color: rgb(34, 34, 34); font-family: Arial, sans-serif; font-variant-ligatures: normal; font-variant-caps: normal; font-weight: 400; letter-spacing: normal; orphans: 2; text-align: left; text-indent: 0px; text-transform: none; widows: 2; word-spacing: 0px; -webkit-text-stroke-width: 0px; white-space: normal; background-color: rgb(255, 255, 255); text-decoration-thickness: initial; text-decoration-style: initial; text-decoration-color: initial;&quot;&gt;arXiv preprint arXiv:2308.02151&lt;/i&gt;&lt;span style=&quot;color: rgb(34, 34, 34); font-family: Arial, sans-serif; font-style: normal; font-variant-ligatures: normal; font-variant-caps: normal; font-weight: 400; letter-spacing: normal; orphans: 2; text-align: left; text-indent: 0px; text-transform: none; widows: 2; word-spacing: 0px; -webkit-text-stroke-width: 0px; white-space: normal; background-color: rgb(255, 255, 255); text-decoration-thickness: initial; text-decoration-style: initial; text-decoration-color: initial; float: none; display: inline !important;&quot;&gt;.&lt;/span&gt;&lt;/font&gt;&lt;/div&gt;&lt;div&gt;&lt;font style=&quot;&quot;&gt;&lt;span style=&quot;orphans: 2; text-align: left; text-indent: 0px; widows: 2; background-color: rgb(255, 255, 255); text-decoration-thickness: initial; text-decoration-style: initial; text-decoration-color: initial; float: none; display: inline !important;&quot;&gt;&lt;font face=&quot;Arial, sans-serif&quot; color=&quot;#222222&quot;&gt;Hu, B., Zhao, C., Zhang, P., Zhou, Z., Yang, Y., Xu, Z. and Liu, B., 2023. Enabling intelligent interactions between an agent and an LLM: A reinforcement learning approach. &lt;i&gt;arXiv preprint arXiv:2306.03604&lt;/i&gt;.&lt;/font&gt;&lt;br&gt;&lt;/span&gt;&lt;/font&gt;&lt;/div&gt;&lt;/div&gt;&lt;/div&gt;&lt;div&gt;&lt;font style=&quot;&quot;&gt;&lt;span style=&quot;orphans: 2; text-align: left; text-indent: 0px; widows: 2; background-color: rgb(255, 255, 255); text-decoration-thickness: initial; text-decoration-style: initial; text-decoration-color: initial; float: none; display: inline !important;&quot;&gt;&lt;font face=&quot;Arial, sans-serif&quot; color=&quot;#222222&quot;&gt;&lt;br&gt;&lt;/font&gt;&lt;/span&gt;&lt;/font&gt;&lt;/div&gt;&lt;div&gt;&lt;font style=&quot;&quot;&gt;&lt;span style=&quot;orphans: 2; text-align: left; text-indent: 0px; widows: 2; background-color: rgb(255, 255, 255); text-decoration-thickness: initial; text-decoration-style: initial; text-decoration-color: initial; float: none; display: inline !important;&quot;&gt;&lt;font face=&quot;Arial, sans-serif&quot; color=&quot;#222222&quot;&gt;&lt;b&gt;&lt;u&gt;Explainer:&lt;/u&gt;&lt;/b&gt;&lt;/font&gt;&lt;/span&gt;&lt;/font&gt;&lt;/div&gt;&lt;div&gt;&lt;font style=&quot;&quot;&gt;&lt;span style=&quot;orphans: 2; text-align: left; text-indent: 0px; widows: 2; background-color: rgb(255, 255, 255); text-decoration-thickness: initial; text-decoration-style: initial; text-decoration-color: initial; float: none; display: inline !important;&quot;&gt;&lt;font face=&quot;Arial, sans-serif&quot; color=&quot;#222222&quot;&gt;Wang, Z., Cai, S., Chen, G., Liu, A., Ma, X. and Liang, Y., 2023. Describe, explain, plan and select: Interactive planning with large language models enables open-world multi-task agents. &lt;i&gt;arXiv preprint arXiv:2302.01560&lt;/i&gt;.&lt;br&gt;&lt;/font&gt;&lt;/span&gt;&lt;/font&gt;&lt;/div&gt;&lt;div&gt;&lt;font style=&quot;&quot;&gt;&lt;span style=&quot;orphans: 2; text-align: left; text-indent: 0px; widows: 2; background-color: rgb(255, 255, 255); text-decoration-thickness: initial; text-decoration-style: initial; text-decoration-color: initial; float: none; display: inline !important;&quot;&gt;&lt;font face=&quot;Arial, sans-serif&quot; color=&quot;#222222&quot;&gt;&lt;br&gt;&lt;/font&gt;&lt;/span&gt;&lt;/font&gt;&lt;/div&gt;&lt;div&gt;&lt;font style=&quot;&quot;&gt;&lt;span style=&quot;orphans: 2; text-align: left; text-indent: 0px; widows: 2; background-color: rgb(255, 255, 255); text-decoration-thickness: initial; text-decoration-style: initial; text-decoration-color: initial; float: none; display: inline !important;&quot;&gt;&lt;font face=&quot;Arial, sans-serif&quot; color=&quot;#222222&quot;&gt;&lt;b&gt;&lt;u&gt;Agent:&lt;/u&gt;&lt;/b&gt;&lt;/font&gt;&lt;/span&gt;&lt;/font&gt;&lt;/div&gt;&lt;div&gt;&lt;font style=&quot;&quot;&gt;&lt;span style=&quot;orphans: 2; text-align: left; text-indent: 0px; widows: 2; background-color: rgb(255, 255, 255); text-decoration-thickness: initial; text-decoration-style: initial; text-decoration-color: initial; float: none; display: inline !important;&quot;&gt;&lt;span style=&quot;background-color: initial;&quot;&gt;&lt;font face=&quot;Arial, sans-serif&quot; color=&quot;#222222&quot;&gt;Wang, L., Ma, C., Feng, X., Zhang, Z., Yang, H., Zhang, J., Chen, Z., Tang, J., Chen, X., Lin, Y. and Zhao, W.X., 2024. A survey on large language model based autonomous agents. &lt;i&gt;Frontiers of Computer Science&lt;/i&gt;, 18(6), pp.1-26.&lt;/font&gt;&lt;/span&gt;&lt;/span&gt;&lt;/font&gt;&lt;/div&gt;&lt;div&gt;&lt;font style=&quot;&quot;&gt;&lt;span style=&quot;orphans: 2; text-align: left; text-indent: 0px; widows: 2; background-color: rgb(255, 255, 255); text-decoration-thickness: initial; text-decoration-style: initial; text-decoration-color: initial; float: none; display: inline !important;&quot;&gt;&lt;font face=&quot;Arial, sans-serif&quot; color=&quot;#222222&quot;&gt;Yao, S., Zhao, J., Yu, D., Du, N., Shafran, I., Narasimhan, K. and Cao, Y., 2022. React: Synergizing reasoning and acting in language models. &lt;i&gt;arXiv preprint arXiv:2210.03629&lt;/i&gt;.&lt;/font&gt;&lt;/span&gt;&lt;/font&gt;&lt;/div&gt;&lt;div&gt;&lt;font style=&quot;&quot;&gt;&lt;span style=&quot;orphans: 2; text-align: left; text-indent: 0px; widows: 2; background-color: rgb(255, 255, 255); text-decoration-thickness: initial; text-decoration-style: initial; text-decoration-color: initial; float: none; display: inline !important;&quot;&gt;&lt;font face=&quot;Arial, sans-serif&quot; color=&quot;#222222&quot;&gt;Wei, J., Wang, X., Schuurmans, D., Bosma, M., Xia, F., Chi, E., Le, Q.V. and Zhou, D., 2022. Chain-of-thought prompting elicits reasoning in large language models. &lt;i&gt;Advances in neural information processing systems&lt;/i&gt;, 35, pp.24824-24837.&lt;br&gt;&lt;/font&gt;&lt;/span&gt;&lt;/font&gt;&lt;/div&gt;" style="text;whiteSpace=wrap;html=1;" vertex="1" parent="1">
          <mxGeometry x="60" y="320" width="560" height="360" as="geometry" />
        </mxCell>
        <mxCell id="jS5DAeOdQUqkGCRt5gWH-10" value="Memory" style="rounded=1;whiteSpace=wrap;html=1;fontStyle=1" vertex="1" parent="1">
          <mxGeometry x="110" y="225" width="120" height="60" as="geometry" />
        </mxCell>
        <mxCell id="jS5DAeOdQUqkGCRt5gWH-11" value="Action" style="rounded=1;whiteSpace=wrap;html=1;fontStyle=1" vertex="1" parent="1">
          <mxGeometry x="610" y="160" width="120" height="60" as="geometry" />
        </mxCell>
        <mxCell id="jS5DAeOdQUqkGCRt5gWH-12" value="Planning" style="rounded=1;whiteSpace=wrap;html=1;fontStyle=1" vertex="1" parent="1">
          <mxGeometry x="100" y="100" width="120" height="60" as="geometry" />
        </mxCell>
        <mxCell id="jS5DAeOdQUqkGCRt5gWH-13" value="Profile" style="rounded=1;whiteSpace=wrap;html=1;fontStyle=1" vertex="1" parent="1">
          <mxGeometry x="620" y="55" width="120" height="60" as="geometry" />
        </mxCell>
        <mxCell id="jS5DAeOdQUqkGCRt5gWH-15" value="&lt;b&gt;&lt;i&gt;Task&lt;/i&gt;&lt;/b&gt;" style="shape=note;whiteSpace=wrap;html=1;backgroundOutline=1;darkOpacity=0.05;size=13;" vertex="1" parent="1">
          <mxGeometry x="30" y="165" width="50" height="50" as="geometry" />
        </mxCell>
      </root>
    </mxGraphModel>
  </diagram>
</mxfile>
